<svg width="119" height="48" viewBox="0 0 119 48" fill="none" xmlns="http://www.w3.org/2000/svg">
<path fill-rule="evenodd" clip-rule="evenodd" d="M12.9195 0.383521L0.212892 16.5988C-0.00912608 16.8821 -0.0617463 17.2629 0.0751141 17.5958L11.3408 44.9998C11.618 45.6741 12.5002 45.8347 12.9972 45.3014L13.5255 44.7345L8.31358 16.6887L17.4215 8.95548L14.655 0.683155C14.4023 -0.0723194 13.4109 -0.2435 12.9195 0.383521ZM11.7902 17.1963L27.5737 3.79506C28.1845 3.27647 29.1228 3.63823 29.2149 4.42779L32.9888 36.7841C33.031 37.1464 32.871 37.5046 32.5716 37.7181L18.4126 47.812C17.8154 48.2377 16.982 47.9076 16.8492 47.1927L11.4508 18.1437C11.3854 17.7917 11.515 17.43 11.7902 17.1963Z" fill="#005AC1"/>
<path d="M43.6835 36.2726C42.3608 36.2726 41.3261 35.9633 40.5795 35.3446C39.8541 34.7046 39.4915 33.8086 39.4915 32.6566V22.9606C39.4915 22.5339 39.2781 22.3206 38.8515 22.3206H37.6355C37.2088 22.3206 36.9955 22.1073 36.9955 21.6806V18.7686C36.9955 18.3419 37.2088 18.1286 37.6355 18.1286H38.8515C39.2781 18.1286 39.4915 17.9153 39.4915 17.4886V12.4966C39.4915 12.0699 39.7048 11.8566 40.1315 11.8566H44.2275C44.6541 11.8566 44.8675 12.0699 44.8675 12.4966V17.4886C44.8675 17.9153 45.0808 18.1286 45.5075 18.1286H47.3635C47.7901 18.1286 48.0035 18.3419 48.0035 18.7686V21.6806C48.0035 22.1073 47.7901 22.3206 47.3635 22.3206H45.5075C45.0808 22.3206 44.8675 22.5339 44.8675 22.9606V30.8326C44.8675 31.5579 45.2301 31.9206 45.9555 31.9206H47.3315C47.7581 31.9206 47.9715 32.1339 47.9715 32.5606V35.6326C47.9715 36.0593 47.7581 36.2726 47.3315 36.2726H43.6835Z" fill="#1B1B1F"/>
<path d="M51.4735 36.2726C51.0468 36.2726 50.8335 36.0593 50.8335 35.6326V18.7686C50.8335 18.3419 51.0468 18.1286 51.4735 18.1286H55.5695C55.9961 18.1286 56.2095 18.3419 56.2095 18.7686V35.6326C56.2095 36.0593 55.9961 36.2726 55.5695 36.2726H51.4735ZM53.5215 16.8806C52.6681 16.8806 51.9428 16.6353 51.3455 16.1446C50.7695 15.6326 50.4815 14.9606 50.4815 14.1286C50.4815 13.2966 50.7695 12.6246 51.3455 12.1126C51.9428 11.6006 52.6681 11.3446 53.5215 11.3446C54.3748 11.3446 55.0895 11.6006 55.6655 12.1126C56.2628 12.6246 56.5615 13.2966 56.5615 14.1286C56.5615 14.9606 56.2628 15.6326 55.6655 16.1446C55.0895 16.6353 54.3748 16.8806 53.5215 16.8806Z" fill="#1B1B1F"/>
<path d="M68.4437 36.6566C66.5664 36.6566 64.913 36.2619 63.4837 35.4726C62.0757 34.6833 60.977 33.5739 60.1877 32.1446C59.3984 30.6939 59.0037 29.0086 59.0037 27.0886C59.0037 25.2539 59.3877 23.6326 60.1557 22.2246C60.945 20.7953 62.0544 19.6966 63.4837 18.9286C64.913 18.1393 66.5664 17.7446 68.4437 17.7446C70.577 17.7446 72.4117 18.2566 73.9477 19.2806C75.505 20.3046 76.5717 21.7019 77.1477 23.4726C77.169 23.5153 77.1797 23.5899 77.1797 23.6966C77.1797 23.8459 77.1264 23.9633 77.0197 24.0486C76.913 24.1339 76.7744 24.1766 76.6037 24.1766H71.9957C71.6544 24.1766 71.409 24.0059 71.2597 23.6646C70.7477 22.5553 69.809 22.0006 68.4437 22.0006C67.249 22.0006 66.2997 22.4593 65.5957 23.3766C64.8917 24.2726 64.5397 25.5099 64.5397 27.0886C64.5397 28.7313 64.8917 30.0219 65.5957 30.9606C66.2997 31.8993 67.249 32.3686 68.4437 32.3686C69.9157 32.3686 70.8864 31.7606 71.3557 30.5446C71.4837 30.1819 71.729 30.0006 72.0917 30.0006H76.6357C76.8704 30.0006 77.0304 30.0646 77.1157 30.1926C77.2224 30.2993 77.2544 30.4593 77.2117 30.6726C76.657 32.5499 75.5904 34.0219 74.0117 35.0886C72.4544 36.1339 70.5984 36.6566 68.4437 36.6566Z" fill="#1B1B1F"/>
<path d="M80.6297 36.2726C80.203 36.2726 79.9897 36.0593 79.9897 35.6326V12.4966C79.9897 12.0699 80.203 11.8566 80.6297 11.8566H84.7257C85.1524 11.8566 85.3657 12.0699 85.3657 12.4966V23.3126C85.3657 23.4833 85.3977 23.6219 85.4617 23.7286C85.547 23.8353 85.643 23.8886 85.7497 23.8886C85.8564 23.8886 85.995 23.8033 86.1657 23.6326L90.8057 18.4806C91.0404 18.2459 91.307 18.1286 91.6057 18.1286H96.6617C96.8324 18.1286 96.9604 18.1713 97.0457 18.2566C97.1524 18.3206 97.2057 18.4059 97.2057 18.5126C97.2057 18.6193 97.1417 18.7579 97.0137 18.9286L90.7097 25.5206C90.5604 25.7126 90.4857 25.8726 90.4857 26.0006C90.4857 26.1073 90.539 26.2459 90.6457 26.4166L97.5577 35.5046C97.6644 35.6753 97.7177 35.8033 97.7177 35.8886C97.7177 36.1446 97.5364 36.2726 97.1737 36.2726H92.2457C91.9044 36.2726 91.6484 36.1446 91.4777 35.8886L86.1337 28.6246C85.9844 28.4326 85.835 28.3366 85.6857 28.3366C85.4724 28.3366 85.3657 28.5179 85.3657 28.8806V35.6326C85.3657 36.0593 85.1524 36.2726 84.7257 36.2726H80.6297Z" fill="#1B1B1F"/>
<path d="M100.598 36.2726C100.172 36.2726 99.9585 36.0593 99.9585 35.6326V18.7686C99.9585 18.3419 100.172 18.1286 100.598 18.1286H104.694C105.121 18.1286 105.334 18.3419 105.334 18.7686V35.6326C105.334 36.0593 105.121 36.2726 104.694 36.2726H100.598ZM102.646 16.8806C101.793 16.8806 101.068 16.6353 100.47 16.1446C99.8945 15.6326 99.6065 14.9606 99.6065 14.1286C99.6065 13.2966 99.8945 12.6246 100.47 12.1126C101.068 11.6006 101.793 11.3446 102.646 11.3446C103.5 11.3446 104.214 11.6006 104.79 12.1126C105.388 12.6246 105.686 13.2966 105.686 14.1286C105.686 14.9606 105.388 15.6326 104.79 16.1446C104.214 16.6353 103.5 16.8806 102.646 16.8806Z" fill="#1B1B1F"/>
<path d="M114.465 36.2726C113.142 36.2726 112.107 35.9633 111.361 35.3446C110.635 34.7046 110.273 33.8086 110.273 32.6566V22.9606C110.273 22.5339 110.059 22.3206 109.633 22.3206H108.417C107.99 22.3206 107.777 22.1073 107.777 21.6806V18.7686C107.777 18.3419 107.99 18.1286 108.417 18.1286H109.633C110.059 18.1286 110.273 17.9153 110.273 17.4886V12.4966C110.273 12.0699 110.486 11.8566 110.913 11.8566H115.009C115.435 11.8566 115.649 12.0699 115.649 12.4966V17.4886C115.649 17.9153 115.862 18.1286 116.289 18.1286H118.145C118.571 18.1286 118.785 18.3419 118.785 18.7686V21.6806C118.785 22.1073 118.571 22.3206 118.145 22.3206H116.289C115.862 22.3206 115.649 22.5339 115.649 22.9606V30.8326C115.649 31.5579 116.011 31.9206 116.737 31.9206H118.113C118.539 31.9206 118.753 32.1339 118.753 32.5606V35.6326C118.753 36.0593 118.539 36.2726 118.113 36.2726H114.465Z" fill="#1B1B1F"/>
</svg>
